PathFileType	4	(X/Y/Z)	./resultDataOpenSim/trcMotMarkerGrf/sub09/qtm-12-07.trc
DataRate	CameraRate	NumFrames	NumMarkers	Units	OrigDataRate	OrigDataStartFrame	OrigNumFrames
250.000000	250.000000	8	24	m	250.000000	296	473
Frame#	Time	L.Toe.Tip			R.Toe.Tip			L.Ankle.Lat			R.Ankle.Lat			L.Ankle.Med			R.Ankle.Med			L.Heel			R.Heel			L.Knee.Lat			R.Knee.Lat			L.Knee.Med			R.Knee.Med			L.Thigh.Upper			R.Thigh.Upper			L.ASIS			R.ASIS			V.Sacral			L.Acromium			R.Acromium			C7			L.Elbow			R.Elbow			L.Wrist.Lat			R.Wrist.Lat
		X1	Y1	Z1	X2	Y2	Z2	X3	Y3	Z3	X4	Y4	Z4	X5	Y5	Z5	X6	Y6	Z6	X7	Y7	Z7	X8	Y8	Z8	X9	Y9	Z9	X10	Y10	Z10	X11	Y11	Z11	X12	Y12	Z12	X13	Y13	Z13	X14	Y14	Z14	X15	Y15	Z15	X16	Y16	Z16	X17	Y17	Z17	X18	Y18	Z18	X19	Y19	Z19	X20	Y20	Z20	X21	Y21	Z21	X22	Y22	Z22	X23	Y23	Z23	X24	Y24	Z24

296	1.18	0.14747417	0.015305934	0.020236658	1.0073973	0.06357792	0.11589676	0.034945389	0.11575271	-0.02257518	0.85874957	0.05451479	0.14151007	0.066791884	0.12224904	0.071275365	0.86438441	0.097107823	0.05124787	-0.041308588	0.12106319	0.025101502	0.79777619	0.0268008	0.087445479	0.30443424	0.43965254	-0.072225649	0.74920879	0.49747167	0.20246732	0.31493668	0.43296768	0.052748347	0.74119616	0.4793285	0.07646716	0.45369122	0.82458665	-0.10683794	0.5281355	0.82731119	0.25963771	0.56553575	0.89695085	-0.060555499	0.59486456	0.91071902	0.17215314	0.41645112	0.96147887	0.071716793	0.57362151	1.3598448	-0.099820727	0.55238292	1.363739	0.23139829	0.49507228	1.4123559	0.064073645	0.45598086	1.0021662	-0.17603146	0.41401052	1.0325362	0.32025349	0.68054351	0.85007063	-0.16471388	0.52247266	0.78844736	0.3681998
297	1.184	0.14796882	0.015472	0.019927393	1.0093666	0.058552851	0.11572513	0.038251576	0.11888139	-0.024104126	0.86092273	0.053872233	0.14206323	0.070279935	0.12480806	0.069667255	0.86692681	0.09664746	0.051833116	-0.037701948	0.12593647	0.023608411	0.79873585	0.027815181	0.087980919	0.31256973	0.43910061	-0.072637189	0.75790315	0.49991094	0.202621	0.32273447	0.43210425	0.052307697	0.74854549	0.48106476	0.077228019	0.46174078	0.82359267	-0.10646267	0.53587944	0.82863835	0.25999843	0.57328302	0.89630689	-0.059893063	0.60217856	0.91137879	0.17267776	0.42417297	0.9612922	0.072895919	0.58059771	1.359802	-0.099545707	0.55964752	1.3635942	0.23182871	0.50222109	1.4121512	0.064483853	0.46257256	1.0021392	-0.17536455	0.42219211	1.031943	0.32045941	0.68587855	0.84852531	-0.16476694	0.53102609	0.78802712	0.36791499
298	1.188	0.14835652	0.01562777	0.019614118	1.011027	0.053466359	0.11493653	0.041722043	0.12214356	-0.025601529	0.86257121	0.053189953	0.1424342	0.074074223	0.12744802	0.068017062	0.86907957	0.096082748	0.052246711	-0.033793144	0.13103505	0.022231816	0.79942788	0.028679869	0.088482353	0.32114929	0.43846829	-0.073192334	0.76680912	0.50210482	0.20273843	0.33080453	0.43117155	0.051747196	0.75595373	0.4828379	0.077919274	0.46981244	0.82262472	-0.10611695	0.54348882	0.83005293	0.26037963	0.58101879	0.89572309	-0.059250595	0.60950652	0.91217305	0.17324481	0.4319736	0.96111706	0.073562237	0.5876396	1.3598252	-0.099250676	0.56693466	1.3635208	0.23222674	0.50940987	1.412008	0.064908106	0.46916275	1.0022247	-0.17468025	0.43048901	1.0314483	0.32073293	0.69112549	0.84699021	-0.16483771	0.53962005	0.78768559	0.36759698
299	1.192	0.14868013	0.015824142	0.019298157	1.0126421	0.049002476	0.11369195	0.045392843	0.12557828	-0.027065783	0.86394703	0.052463035	0.14252926	0.078189178	0.13020201	0.066313288	0.87083418	0.095375533	0.05236348	-0.02954219	0.13637353	0.020962816	0.80004859	0.029380236	0.089001656	0.33019109	0.43774305	-0.073938564	0.77567953	0.50385868	0.20287058	0.33911446	0.43009172	0.05115212	0.76335525	0.48455306	0.078485845	0.4778938	0.82171416	-0.10576928	0.55097246	0.83145952	0.26084008	0.58873733	0.89520182	-0.058627143	0.61684195	0.91305812	0.17387512	0.43963429	0.96106267	0.073403749	0.59474925	1.3599115	-0.098930059	0.57424207	1.3635273	0.23259975	0.51659397	1.4119391	0.065339867	0.47574382	1.0024501	-0.1739979	0.4388353	1.0310536	0.32101276	0.6962872	0.84548125	-0.16492348	0.54827583	0.78744026	0.36724659
300	1.196	0.14906418	0.016128455	0.018984868	1.0143775	0.045749617	0.11224367	0.049312904	0.12919002	-0.028490896	0.86531976	0.0518006	0.14229802	0.082675067	0.13307896	0.064575728	0.87230619	0.094607979	0.052105368	-0.024896384	0.14191139	0.019812695	0.80074363	0.029951935	0.089444212	0.33960073	0.43691273	-0.074821332	0.78429239	0.50510377	0.20306197	0.34771624	0.42880866	0.05053602	0.77068267	0.48611388	0.078931731	0.48597793	0.82086527	-0.10537711	0.55836282	0.83279684	0.26140428	0.59643278	0.89474568	-0.058021796	0.6241577	0.9139971	0.17456228	0.44710231	0.96110237	0.07280518	0.60192808	1.3600476	-0.098581307	0.58156679	1.3636105	0.23295212	0.52373741	1.4119311	0.065760841	0.48231035	1.0028264	-0.17333273	0.44712315	1.0307434	0.32120073	0.70137032	0.8440057	-0.16501466	0.55701044	0.78729444	0.36687106
301	1.2	0.14966068	0.016602141	0.018682823	1.016116	0.043842464	0.11089222	0.053541512	0.13295368	-0.029869266	0.86679181	0.051354574	0.14179919	0.087586835	0.13605433	0.062847383	0.87359437	0.093917838	0.05153908	-0.019823386	0.14758708	0.018781736	0.80153228	0.030428815	0.089648863	0.34930904	0.43596652	-0.075741909	0.79252707	0.50587719	0.20329611	0.35678657	0.42733632	0.049810075	0.7779094	0.48743296	0.079280017	0.49406719	0.82005174	-0.10490583	0.5656755	0.83403058	0.26205795	0.60409914	0.89435742	-0.057433665	0.63140926	0.9149675	0.17527806	0.45450244	0.96110866	0.072574085	0.60917136	1.3602123	-0.098206894	0.58889874	1.3637535	0.23328295	0.53083869	1.4119398	0.066147901	0.48886283	1.0033368	-0.17268758	0.45531031	1.0304977	0.32126597	0.70638033	0.84255517	-0.16510421	0.56582145	0.78722838	0.36647986
302	1.204	0.15056921	0.01728725	0.018393948	1.017558	0.042921677	0.10987953	0.058130872	0.13684152	-0.031194845	0.86820026	0.051231678	0.14122698	0.092924947	0.13910759	0.061167602	0.87470092	0.093405501	0.050877091	-0.014324737	0.15336926	0.017834111	0.80230171	0.030811229	0.089605007	0.35934628	0.43491131	-0.07667162	0.80037881	0.50629383	0.20351559	0.36642498	0.42575494	0.048887817	0.78505265	0.48848482	0.079544947	0.50216517	0.81925252	-0.1043424	0.57288029	0.83514613	0.26276643	0.61173048	0.89403962	-0.056861803	0.63855411	0.91597185	0.17599656	0.46193813	0.96102176	0.073133515	0.61646612	1.3603946	-0.097817544	0.59621274	1.363945	0.23359382	0.53793933	1.4119383	0.066487278	0.49540315	1.0039513	-0.1720597	0.4634425	1.0302975	0.32126213	0.71131894	0.84111892	-0.16519583	0.57468256	0.78721661	0.36607746
303	1.208	0.15180475	0.01820441	0.018099582	1.0185171	0.042460788	0.10925247	0.063115033	0.14084599	-0.032459517	0.86925775	0.051419993	0.1408141	0.098613272	0.14225547	0.059565892	0.87556012	0.093081727	0.050352369	-0.0084215811	0.15927449	0.016908124	0.80289448	0.031079684	0.089515282	0.36973981	0.43378546	-0.077647396	0.80791527	0.50651023	0.20367775	0.37647037	0.42411475	0.047800778	0.79215046	0.48934219	0.079732671	0.51026544	0.81847126	-0.1037002	0.57992483	0.83615114	0.26351102	0.61932107	0.89379439	-0.056305158	0.64557745	0.91703381	0.17671966	0.46941707	0.96090156	0.074280816	0.62379524	1.3605994	-0.097426618	0.60347673	1.364191	0.23389296	0.5450902	1.4119426	0.066777643	0.50192849	1.0046476	-0.1714534	0.47156966	1.0301269	0.32125262	0.71618494	0.83969644	-0.16529735	0.58356786	0.78725214	0.36566245
